# xmcd
#
# Track frame offsets:
# 150
# 24655
# 53564
# 74747
# 94977
# 114032
# 136774
# 157024
# 179330
# 200491
# 231325
# 254209
# 281669
# 306701
# 329907
#
# Disc length: 4683 seconds
#
# Revision: 1
# Processed by: cddbd v1.5.1PL0 Copyright (c) Steve Scherf et al.
# Submitted via: Easy CD Ripper v2.27
#
DISCID=ee12490f
DTITLE=The Gap Band - The Best of the Gap Band 80s
DYEAR=2003
DGENRE=R&B
TTITLE0=Zibble Zibble - The Gap Band
TTITLE1=Beep A Freak - The Gap Band
TTITLE2=I Found My Baby - The Gap Band
TTITLE3=Going In Circles - The Gap Band
TTITLE4=Ooh, What A Feeling - The Gap Band
TTITLE5=Sweeter Then Candy - The Gap Band
TTITLE6=Disrespect - The Gap Band
TTITLE7=Straight From The Heart - The Gap Band
TTITLE8=L'll Red Funkin' Hood - The Gap Band
TTITLE9=Big Fun - The Gap Band
TTITLE10=Automatic Brain - The Gap Band
TTITLE11=Video Junkie - The Gap Band
TTITLE12=Desire - The Gap Band
TTITLE13=The Sun Don't Shine Every Day - The Gap Band
TTITLE14=I Know We'll Make It - The Gap Band
EXTD=
EXTT0=
EXTT1=
EXTT2=
EXTT3=
EXTT4=
EXTT5=
EXTT6=
EXTT7=
EXTT8=
EXTT9=
EXTT10=
EXTT11=
EXTT12=
EXTT13=
EXTT14=
PLAYORDER=
